<svg width="346" height="427" viewBox="0 0 346 427" fill="none" xmlns="http://www.w3.org/2000/svg">
<g filter="url(#filter0_dd_1_1548)">
<ellipse cx="208.93" cy="372.607" rx="23.0426" ry="22.3931" fill="url(#paint0_linear_1_1548)" shape-rendering="crispEdges"/>
</g>
<g filter="url(#filter1_dd_1_1548)">
<ellipse cx="279.201" cy="301.136" rx="17.0471" ry="16.5666" fill="url(#paint1_linear_1_1548)" shape-rendering="crispEdges"/>
</g>
<ellipse cx="173" cy="168.124" rx="173" ry="168.124" fill="url(#paint2_radial_1_1548)" fill-opacity="0.6"/>
<g filter="url(#filter2_d_1_1548)">
<ellipse cx="208.585" cy="205.838" rx="103.653" ry="63.1055" fill="url(#paint3_linear_1_1548)" fill-opacity="0.5" shape-rendering="crispEdges"/>
<path d="M311.768 205.838C311.768 223.037 300.315 238.685 281.634 250.058C262.962 261.426 237.136 268.473 208.585 268.473C180.034 268.473 154.208 261.426 135.536 250.058C116.855 238.685 105.403 223.037 105.403 205.838C105.403 188.639 116.855 172.991 135.536 161.617C154.208 150.249 180.034 143.203 208.585 143.203C237.136 143.203 262.962 150.249 281.634 161.617C300.315 172.991 311.768 188.639 311.768 205.838Z" stroke="url(#paint4_linear_1_1548)" stroke-opacity="0.6" stroke-width="0.941174" shape-rendering="crispEdges"/>
</g>
<ellipse cx="208.584" cy="146.995" rx="131.5" ry="127.794" fill="url(#paint5_radial_1_1548)"/>
<ellipse cx="208.583" cy="168.124" rx="128.564" ry="73.0922" fill="url(#paint6_linear_1_1548)" fill-opacity="0.5"/>
<path d="M336.676 168.124C336.676 188.065 322.455 206.211 299.259 219.399C276.076 232.579 244.019 240.746 208.583 240.746C173.148 240.746 141.09 232.579 117.908 219.399C94.7113 206.211 80.4901 188.065 80.4901 168.124C80.4901 148.183 94.7113 130.037 117.908 116.849C141.09 103.669 173.148 95.5023 208.583 95.5023C244.019 95.5023 276.076 103.669 299.259 116.849C322.455 130.037 336.676 148.183 336.676 168.124Z" stroke="url(#paint7_linear_1_1548)" stroke-opacity="0.6" stroke-width="0.941174"/>
<ellipse cx="208.583" cy="146.994" rx="97.405" ry="94.6594" fill="url(#paint8_radial_1_1548)"/>
<ellipse cx="208.583" cy="146.994" rx="97.405" ry="94.6594" fill="url(#paint9_radial_1_1548)"/>
<g filter="url(#filter3_d_1_1548)">
<ellipse cx="208.584" cy="122.745" rx="127.256" ry="71.4019" fill="url(#paint10_linear_1_1548)" fill-opacity="0.5" shape-rendering="crispEdges"/>
<path d="M335.369 122.745C335.369 142.216 321.298 159.94 298.337 172.824C275.391 185.698 243.659 193.677 208.584 193.677C173.508 193.677 141.777 185.698 118.831 172.824C95.8693 159.94 81.7985 142.216 81.7985 122.745C81.7985 103.274 95.8693 85.5501 118.831 72.6669C141.777 59.792 173.508 51.8139 208.584 51.8139C243.659 51.8139 275.391 59.792 298.337 72.6669C321.298 85.5501 335.369 103.274 335.369 122.745Z" stroke="url(#paint11_linear_1_1548)" stroke-opacity="0.6" stroke-width="0.941174" shape-rendering="crispEdges"/>
</g>
<g filter="url(#filter4_d_1_1548)">
<ellipse cx="208.583" cy="85.8745" rx="98.747" ry="62.0283" fill="url(#paint12_linear_1_1548)" fill-opacity="0.5" shape-rendering="crispEdges"/>
<path d="M306.86 85.8745C306.86 102.784 295.948 118.162 278.158 129.337C260.374 140.508 235.777 147.432 208.583 147.432C181.39 147.432 156.793 140.508 139.009 129.337C121.219 118.162 110.307 102.784 110.307 85.8745C110.307 68.9655 121.219 53.5872 139.009 42.4124C156.793 31.2415 181.39 24.3168 208.583 24.3168C235.777 24.3168 260.374 31.2415 278.158 42.4124C295.948 53.5872 306.86 68.9655 306.86 85.8745Z" stroke="url(#paint13_linear_1_1548)" stroke-opacity="0.6" stroke-width="0.941174" shape-rendering="crispEdges"/>
</g>
<ellipse cx="208.585" cy="64.3302" rx="61.4626" ry="40.484" fill="url(#paint14_linear_1_1548)" fill-opacity="0.5"/>
<path d="M269.577 64.3302C269.577 75.3006 262.826 85.2924 251.787 92.5637C240.752 99.8324 225.479 104.344 208.585 104.344C191.692 104.344 176.419 99.8324 165.383 92.5637C154.344 85.2924 147.593 75.3006 147.593 64.3302C147.593 53.3598 154.344 43.368 165.383 36.0967C176.419 28.828 191.692 24.3168 208.585 24.3168C225.479 24.3168 240.752 28.828 251.787 36.0967C262.826 43.368 269.577 53.3598 269.577 64.3302Z" stroke="url(#paint15_linear_1_1548)" stroke-opacity="0.6" stroke-width="0.941174"/>
<ellipse cx="208.584" cy="50.5099" rx="35.5839" ry="23.7938" fill="url(#paint16_linear_1_1548)" fill-opacity="0.5"/>
<path d="M243.697 50.5099C243.697 56.8747 239.839 62.694 233.484 66.9435C227.132 71.1908 218.33 73.8331 208.584 73.8331C198.838 73.8331 190.036 71.1908 183.684 66.9435C177.329 62.694 173.471 56.8747 173.471 50.5099C173.471 44.145 177.329 38.3258 183.684 34.0763C190.036 29.829 198.838 27.1867 208.584 27.1867C218.33 27.1867 227.132 29.829 233.484 34.0763C239.839 38.3258 243.697 44.145 243.697 50.5099Z" stroke="url(#paint17_linear_1_1548)" stroke-opacity="0.6" stroke-width="0.941174"/>
<ellipse cx="208.584" cy="146.994" rx="131.5" ry="127.794" fill="url(#paint18_radial_1_1548)" fill-opacity="0.3"/>
<defs>
<filter id="filter0_dd_1_1548" x="152.947" y="315.39" width="111.967" height="110.668" filterUnits="userSpaceOnUse" color-interpolation-filters="sRGB">
<feFlood flood-opacity="0" result="BackgroundImageFix"/>
<feColorMatrix in="SourceAlpha" type="matrix" values="0 0 0 0 0 0 0 0 0 0 0 0 0 0 0 0 0 0 127 0" result="hardAlpha"/>
<feOffset dy="-1.88235"/>
<feGaussianBlur stdDeviation="16.4705"/>
<feComposite in2="hardAlpha" operator="out"/>
<feColorMatrix type="matrix" values="0 0 0 0 0.371081 0 0 0 0 0.235903 0 0 0 0 0.658333 0 0 0 1 0"/>
<feBlend mode="normal" in2="BackgroundImageFix" result="effect1_dropShadow_1_1548"/>
<feColorMatrix in="SourceAlpha" type="matrix" values="0 0 0 0 0 0 0 0 0 0 0 0 0 0 0 0 0 0 127 0" result="hardAlpha"/>
<feOffset dy="-1.88235"/>
<feGaussianBlur stdDeviation="9.41174"/>
<feComposite in2="hardAlpha" operator="out"/>
<feColorMatrix type="matrix" values="0 0 0 0 0.48825 0 0 0 0 0.372778 0 0 0 0 0.733333 0 0 0 1 0"/>
<feBlend mode="normal" in2="effect1_dropShadow_1_1548" result="effect2_dropShadow_1_1548"/>
<feBlend mode="normal" in="SourceGraphic" in2="effect2_dropShadow_1_1548" result="shape"/>
</filter>
<filter id="filter1_dd_1_1548" x="229.213" y="249.746" width="99.9764" height="99.0154" filterUnits="userSpaceOnUse" color-interpolation-filters="sRGB">
<feFlood flood-opacity="0" result="BackgroundImageFix"/>
<feColorMatrix in="SourceAlpha" type="matrix" values="0 0 0 0 0 0 0 0 0 0 0 0 0 0 0 0 0 0 127 0" result="hardAlpha"/>
<feOffset dy="-1.88235"/>
<feGaussianBlur stdDeviation="16.4705"/>
<feComposite in2="hardAlpha" operator="out"/>
<feColorMatrix type="matrix" values="0 0 0 0 0.371081 0 0 0 0 0.235903 0 0 0 0 0.658333 0 0 0 1 0"/>
<feBlend mode="normal" in2="BackgroundImageFix" result="effect1_dropShadow_1_1548"/>
<feColorMatrix in="SourceAlpha" type="matrix" values="0 0 0 0 0 0 0 0 0 0 0 0 0 0 0 0 0 0 127 0" result="hardAlpha"/>
<feOffset dy="-1.88235"/>
<feGaussianBlur stdDeviation="9.41174"/>
<feComposite in2="hardAlpha" operator="out"/>
<feColorMatrix type="matrix" values="0 0 0 0 0.48825 0 0 0 0 0.372778 0 0 0 0 0.733333 0 0 0 1 0"/>
<feBlend mode="normal" in2="effect1_dropShadow_1_1548" result="effect2_dropShadow_1_1548"/>
<feBlend mode="normal" in="SourceGraphic" in2="effect2_dropShadow_1_1548" result="shape"/>
</filter>
<filter id="filter2_d_1_1548" x="95.5204" y="134.262" width="226.13" height="145.034" filterUnits="userSpaceOnUse" color-interpolation-filters="sRGB">
<feFlood flood-opacity="0" result="BackgroundImageFix"/>
<feColorMatrix in="SourceAlpha" type="matrix" values="0 0 0 0 0 0 0 0 0 0 0 0 0 0 0 0 0 0 127 0" result="hardAlpha"/>
<feOffset dy="0.941174"/>
<feGaussianBlur stdDeviation="4.70587"/>
<feComposite in2="hardAlpha" operator="out"/>
<feColorMatrix type="matrix" values="0 0 0 0 0.440043 0 0 0 0 0.20092 0 0 0 0 0.679167 0 0 0 0.3 0"/>
<feBlend mode="normal" in2="BackgroundImageFix" result="effect1_dropShadow_1_1548"/>
<feBlend mode="normal" in="SourceGraphic" in2="effect1_dropShadow_1_1548" result="shape"/>
</filter>
<filter id="filter3_d_1_1548" x="76.622" y="47.5786" width="263.924" height="152.216" filterUnits="userSpaceOnUse" color-interpolation-filters="sRGB">
<feFlood flood-opacity="0" result="BackgroundImageFix"/>
<feColorMatrix in="SourceAlpha" type="matrix" values="0 0 0 0 0 0 0 0 0 0 0 0 0 0 0 0 0 0 127 0" result="hardAlpha"/>
<feOffset dy="0.941174"/>
<feGaussianBlur stdDeviation="2.35293"/>
<feComposite in2="hardAlpha" operator="out"/>
<feColorMatrix type="matrix" values="0 0 0 0 0.369333 0 0 0 0 0.0916667 0 0 0 0 0.5 0 0 0 0.15 0"/>
<feBlend mode="normal" in2="BackgroundImageFix" result="effect1_dropShadow_1_1548"/>
<feBlend mode="normal" in="SourceGraphic" in2="effect1_dropShadow_1_1548" result="shape"/>
</filter>
<filter id="filter4_d_1_1548" x="103.719" y="17.7286" width="211.612" height="138.174" filterUnits="userSpaceOnUse" color-interpolation-filters="sRGB">
<feFlood flood-opacity="0" result="BackgroundImageFix"/>
<feColorMatrix in="SourceAlpha" type="matrix" values="0 0 0 0 0 0 0 0 0 0 0 0 0 0 0 0 0 0 127 0" result="hardAlpha"/>
<feOffset dx="0.941174" dy="0.941174"/>
<feGaussianBlur stdDeviation="3.5294"/>
<feComposite in2="hardAlpha" operator="out"/>
<feColorMatrix type="matrix" values="0 0 0 0 0.440043 0 0 0 0 0.20092 0 0 0 0 0.679167 0 0 0 0.2 0"/>
<feBlend mode="normal" in2="BackgroundImageFix" result="effect1_dropShadow_1_1548"/>
<feBlend mode="normal" in="SourceGraphic" in2="effect1_dropShadow_1_1548" result="shape"/>
</filter>
<linearGradient id="paint0_linear_1_1548" x1="208.93" y1="340.478" x2="208.93" y2="419.016" gradientUnits="userSpaceOnUse">
<stop stop-color="white"/>
<stop offset="0.223958" stop-color="#6BE4FF"/>
<stop offset="0.623188" stop-color="#371B73" stop-opacity="0.6"/>
<stop offset="1" stop-color="#0A1153" stop-opacity="0.4"/>
</linearGradient>
<linearGradient id="paint1_linear_1_1548" x1="279.201" y1="277.367" x2="279.201" y2="335.47" gradientUnits="userSpaceOnUse">
<stop stop-color="white"/>
<stop offset="0.223958" stop-color="#6BE4FF"/>
<stop offset="0.623188" stop-color="#371B73" stop-opacity="0.6"/>
<stop offset="1" stop-color="#0A1153" stop-opacity="0.4"/>
</linearGradient>
<radialGradient id="paint2_radial_1_1548" cx="0" cy="0" r="1" gradientUnits="userSpaceOnUse" gradientTransform="translate(173 168.124) rotate(90) scale(168.124 173)">
<stop stop-color="#FF65C1"/>
<stop offset="1" stop-color="#FF65C1" stop-opacity="0"/>
</radialGradient>
<linearGradient id="paint3_linear_1_1548" x1="208.585" y1="142.732" x2="208.585" y2="268.943" gradientUnits="userSpaceOnUse">
<stop stop-color="#13154D"/>
<stop offset="1" stop-color="#8E92EE" stop-opacity="0"/>
</linearGradient>
<linearGradient id="paint4_linear_1_1548" x1="260.066" y1="213.794" x2="265.609" y2="277.485" gradientUnits="userSpaceOnUse">
<stop stop-color="white" stop-opacity="0"/>
<stop offset="1" stop-color="white"/>
</linearGradient>
<radialGradient id="paint5_radial_1_1548" cx="0" cy="0" r="1" gradientUnits="userSpaceOnUse" gradientTransform="translate(77.0835 193.483) rotate(-19.1504) scale(278.407 272.273)">
<stop offset="0.249306" stop-color="white"/>
<stop offset="0.48315" stop-color="#FF8FED" stop-opacity="0.5"/>
<stop offset="0.627037" stop-color="#220C7A" stop-opacity="0.5"/>
</radialGradient>
<linearGradient id="paint6_linear_1_1548" x1="90.511" y1="183.658" x2="334.006" y2="155.377" gradientUnits="userSpaceOnUse">
<stop stop-color="white"/>
<stop offset="1" stop-color="#12178E" stop-opacity="0.4"/>
</linearGradient>
<linearGradient id="paint7_linear_1_1548" x1="228.996" y1="272.193" x2="191.951" y2="181.25" gradientUnits="userSpaceOnUse">
<stop offset="0.0011346" stop-color="white"/>
<stop offset="1" stop-color="white" stop-opacity="0"/>
</linearGradient>
<radialGradient id="paint8_radial_1_1548" cx="0" cy="0" r="1" gradientUnits="userSpaceOnUse" gradientTransform="translate(134.911 195.062) rotate(-14.4486) scale(192.649 187.904)">
<stop offset="0.239373" stop-color="white"/>
<stop offset="0.410099" stop-color="#FFCEF1"/>
<stop offset="0.67492" stop-color="#B6B9FF"/>
<stop offset="0.861176" stop-color="#FFA8E7"/>
<stop offset="1" stop-color="white"/>
</radialGradient>
<radialGradient id="paint9_radial_1_1548" cx="0" cy="0" r="1" gradientUnits="userSpaceOnUse" gradientTransform="translate(300.864 220.161) rotate(-122.461) scale(108.722 110.085)">
<stop stop-color="#3F52FF"/>
<stop offset="1" stop-color="#3F52FF" stop-opacity="0"/>
</radialGradient>
<linearGradient id="paint10_linear_1_1548" x1="84.0682" y1="117.824" x2="335.825" y2="125.872" gradientUnits="userSpaceOnUse">
<stop stop-color="white"/>
<stop offset="1" stop-color="#5653FF" stop-opacity="0.2"/>
</linearGradient>
<linearGradient id="paint11_linear_1_1548" x1="191.826" y1="244.56" x2="184.352" y2="128.061" gradientUnits="userSpaceOnUse">
<stop stop-color="white"/>
<stop offset="1" stop-color="white" stop-opacity="0"/>
</linearGradient>
<linearGradient id="paint12_linear_1_1548" x1="208.583" y1="23.8462" x2="208.583" y2="147.903" gradientUnits="userSpaceOnUse">
<stop stop-color="#13154D" stop-opacity="0.5"/>
<stop offset="1" stop-color="#8E92EE" stop-opacity="0"/>
</linearGradient>
<linearGradient id="paint13_linear_1_1548" x1="225.842" y1="174.836" x2="238.218" y2="37.5907" gradientUnits="userSpaceOnUse">
<stop stop-color="white"/>
<stop offset="1" stop-color="white" stop-opacity="0"/>
</linearGradient>
<linearGradient id="paint14_linear_1_1548" x1="208.585" y1="23.8462" x2="208.585" y2="104.814" gradientUnits="userSpaceOnUse">
<stop stop-color="#13154D"/>
<stop offset="1" stop-color="#8E92EE" stop-opacity="0"/>
</linearGradient>
<linearGradient id="paint15_linear_1_1548" x1="233.177" y1="164.384" x2="209.916" y2="23.6264" gradientUnits="userSpaceOnUse">
<stop stop-color="white"/>
<stop offset="1" stop-color="white" stop-opacity="0"/>
</linearGradient>
<linearGradient id="paint16_linear_1_1548" x1="208.584" y1="26.7161" x2="208.584" y2="74.3037" gradientUnits="userSpaceOnUse">
<stop stop-color="#13154D"/>
<stop offset="1" stop-color="#8E92EE" stop-opacity="0"/>
</linearGradient>
<linearGradient id="paint17_linear_1_1548" x1="227.798" y1="124.476" x2="209.616" y2="26.5244" gradientUnits="userSpaceOnUse">
<stop stop-color="white"/>
<stop offset="1" stop-color="white" stop-opacity="0"/>
</linearGradient>
<radialGradient id="paint18_radial_1_1548" cx="0" cy="0" r="1" gradientUnits="userSpaceOnUse" gradientTransform="translate(77.0835 193.482) rotate(-19.1504) scale(278.407 272.273)">
<stop offset="0.249306" stop-color="white"/>
<stop offset="0.48315" stop-color="#FF8FED" stop-opacity="0.5"/>
<stop offset="0.627037" stop-color="#220C7A" stop-opacity="0"/>
</radialGradient>
</defs>
</svg>
